<?xml version="1.0" encoding="utf-8"?><svg fill="none" viewBox="0 0 634 412" xmlns="http://www.w3.org/2000/svg"><defs><linearGradient id="null" gradientUnits="userSpaceOnUse" spreadMethod="pad" x2="-228" y2="148" x1="-278" y1="159"><stop offset="0%" stop-color="#99f7ef" /><stop offset="50%" stop-color="#ccfbf7" /><stop offset="100%" stop-color="#e6fdfb" /></linearGradient><linearGradient id="null" gradientUnits="userSpaceOnUse" spreadMethod="pad" x2="-228" y2="148" x1="-278" y1="159"><stop offset="0%" stop-color="#99f7ef" /><stop offset="50%" stop-color="#ccfbf7" /><stop offset="100%" stop-color="#e6fdfb" /></linearGradient><linearGradient id="null" gradientUnits="userSpaceOnUse" spreadMethod="pad" x2="-228" y2="148" x1="-278" y1="159"><stop offset="0%" stop-color="#99f7ef" /><stop offset="50%" stop-color="#ccfbf7" /><stop offset="100%" stop-color="#e6fdfb" /></linearGradient><linearGradient id="null" gradientUnits="userSpaceOnUse" spreadMethod="pad" x2="-228" y2="148" x1="-278" y1="159"><stop offset="0%" stop-color="#99f7ef" /><stop offset="50%" stop-color="#ccfbf7" /><stop offset="100%" stop-color="#e6fdfb" /></linearGradient><linearGradient id="null" gradientUnits="userSpaceOnUse" spreadMethod="pad" x2="-228" y2="148" x1="-278" y1="159"><stop offset="0%" stop-color="#99f7ef" /><stop offset="50%" stop-color="#ccfbf7" /><stop offset="100%" stop-color="#e6fdfb" /></linearGradient><linearGradient id="null" gradientUnits="userSpaceOnUse" spreadMethod="pad" x2="-228" y2="148" x1="-278" y1="159"><stop offset="0%" stop-color="#99f7ef" /><stop offset="50%" stop-color="#ccfbf7" /><stop offset="100%" stop-color="#e6fdfb" /></linearGradient><linearGradient id="null" gradientUnits="userSpaceOnUse" spreadMethod="pad" x2="-12" y2="3" x1="7.5" y1="-1.5"><stop offset="0%" stop-color="#99f7ef" /><stop offset="50%" stop-color="#ccfbf7" /><stop offset="100%" stop-color="#e6fdfb" /></linearGradient><linearGradient id="null" gradientUnits="userSpaceOnUse" spreadMethod="pad" x2="-5" y2="-15" x1="3.5" y1="7"><stop offset="0%" stop-color="#99f7ef" /><stop offset="50%" stop-color="#ccfbf7" /><stop offset="100%" stop-color="#e6fdfb" /></linearGradient><linearGradient id="null" gradientUnits="userSpaceOnUse" spreadMethod="pad" x2="0" y2="15" x1="-1" y1="-3"><stop offset="0%" stop-color="#99f7ef" /><stop offset="50%" stop-color="#ccfbf7" /><stop offset="100%" stop-color="#e6fdfb" /></linearGradient><linearGradient id="null" gradientUnits="userSpaceOnUse" spreadMethod="pad" x2="12.5" y2="-3" x1="-11" y1="3.5"><stop offset="0%" stop-color="#99f7ef" /><stop offset="50%" stop-color="#ccfbf7" /><stop offset="100%" stop-color="#e6fdfb" /></linearGradient></defs><g transform="matrix(1,0,0,1,317,206)" id="BG"><g id="Rectangle 1"><rect height="412" width="634" y="0" x="0" fill="#ffffff" fill-opacity="1" /></g></g><g transform="matrix(1,0,0,1,-11.774,16.423)" id="Layer 23 Outlines"><g id="Group 1" transform="matrix(1,0,0,1,209.497,159.013)"><path fill="#e6fdfb" fill-opacity="1" d="M-173,-67.818C-191.46,-31.088,-209.247,44.097,-200.083,90.217C-192.271,139.019,-157.505,158.762,-102.032,146.607C-46.565,134.45,4.257,122.249,38.036,119.41C73.162,113.886,142.998,117.724,164.145,75.64C179.999,44.089,187.746,9.093,192.091,-25.748C195.759,-55.161,197.723,-90.922,173.467,-112.624C163.084,-121.913,150.135,-127.877,136.919,-132.282C57.459,-158.763,-19.359,-118.258,-98.644,-111.585C-133.776,-106.064,-151.844,-109.896,-173,-67.818Z" /></g></g><g transform="matrix(1,0,0,1,309.564,-114.35)" id="Layer 22 Outlines"><g id="Group 1" transform="matrix(1,0,0,1,161.748,160.967)"><path fill="#034b70" fill-opacity="1" d="M113.621,23.442C139.88,0.429,153.577,-39.476,157.077,-72.886C161.497,-115.079,137.089,-139.203,88.398,-141.512C39.713,-143.817,-5.134,-145.049,-33.765,-150.236C-64.111,-153.498,-78.242,-160.717,-105.163,-130.558C-132.888,-99.497,-161.497,-63.055,-152.337,-18.265C-145.395,15.681,-113.534,21.609,-84.577,26.802C-50.353,32.941,-15.761,36.621,18.699,41.131C48.725,45.061,83.674,46.616,109.315,26.973C110.786,25.846,112.222,24.668,113.621,23.442Z" /></g></g><g transform="matrix(1,0,0,1,374.501,175.746)" id="Layer 21 Outlines"><g id="Group 1" transform="matrix(1,0,0,1,129.391,118.111)"><path fill="#ffffff" fill-opacity="1" d="M-97.406,-45.088C-113.569,-12.931,-129.141,52.895,-121.118,93.274C-114.279,136.003,-83.841,153.287,-35.272,142.645C13.29,132.002,57.786,121.319,87.36,118.834C118.114,113.997,133.947,117.358,152.461,80.514C168.631,48.359,184.199,-17.469,176.174,-57.849C169.333,-100.578,138.899,-117.861,90.329,-107.221C41.763,-96.578,-2.737,-85.898,-32.306,-83.408C-63.065,-78.574,-78.884,-81.929,-97.406,-45.088Z" /></g></g><g id="Layer 20 Outlines"><g transform="translate(485.802,444.428)"><g transform="rotate(0)"><animateTransform repeatCount="indefinite" type="rotate" attributeName="transform" dur="10s" begin="0s" calcMode="spline" values="0; 7; 0" keyTimes="0; 0.5; 1" keySplines="0.333 0 0.667 1; 0.333 0 0.667 1" fill="remove" /><g transform="scale(1,1) translate(-62.297,-210.149)"><g id="Group 3" transform="matrix(1,0,0,1,29.537,68.51)"><path fill="#007494" fill-opacity="1" d="M13.657,68.51C13.657,68.51,-4.366,57.132,-15.131,37.814C-25.894,18.496,-34.622,3.329,-26.105,-17.83C-17.586,-38.989,-20.289,-48.333,-4.547,-68.511C-4.555,-37.07,6.399,-35.385,8.356,-18.391C10.312,-1.399,29.537,7.64,13.657,68.51Z" /></g><g id="Group 2" transform="matrix(1,0,0,1,67.083,102.523)"><path fill="#99f7ef" fill-opacity="1" d="M-2.619,73.868C-2.619,73.868,-19.657,48.317,-23.584,24.036C-27.511,-0.244,-14.577,-4.126,-10.189,-26.629C-5.803,-49.131,13.638,-73.868,13.638,-73.868C13.638,-73.868,14.128,-39.496,24.095,-9.577C34.061,20.343,19.762,34.587,12.522,54.093C5.281,73.597,-2.619,73.868,-2.619,73.868Z" /></g><g id="Group 1" transform="matrix(1,0,0,1,48.093,109.014)"><path stroke-linejoin="round" stroke-linecap="round" stroke-width="1.159" stroke-opacity="1" stroke="#01598b" d="M-25.927,-102.234C-25.927,-102.234,-31.099,-78.226,-25.784,-51.928C-20.47,-25.631,-18.171,0.542,-7.546,21.469C-7.546,21.469,-3.261,29.401,1.652,55.657C6.566,81.912,8.096,87.543,18.635,102.234C20.172,78.768,11.39,70.965,15.895,53.495C23.65,23.42,24.773,-10.411,23.987,-33.333C23.202,-56.256,31.099,-74.766,31.099,-74.766" /></g></g></g></g></g><g id="Layer 19 Outlines"><g transform="translate(-37.909,313.029)"><g transform="rotate(0)"><animateTransform repeatCount="indefinite" type="rotate" attributeName="transform" dur="10s" begin="0s" calcMode="spline" values="0; 7; 0" keyTimes="0; 0.5; 1" keySplines="0.333 0 0.667 1; 0.333 0 0.667 1" fill="remove" /><g transform="scale(1,1) translate(-3.679,-172.092)"><g id="Group 8" transform="matrix(1,0,0,1,55.653,31.926)"><path fill="#ccfbf7" fill-opacity="1" d="M-28.591,24.538C-28.591,24.538,-36.526,12.383,-34.84,-0.175C-33.154,-12.734,-18.591,-22.262,-5.671,-26.969C7.249,-31.676,14.066,-20.165,12.004,-0.074C9.943,20.017,1.737,31.676,-28.591,24.538Z" /></g><g id="Group 7" transform="matrix(1,0,0,1,64.347,75.734)"><path fill="#e6fdfb" fill-opacity="1" d="M-34.526,7.771C-34.526,7.771,-35.752,-6.341,-28.516,-16.367C-21.281,-26.394,-4.365,-27.881,8.917,-25.978C22.2,-24.075,22.76,-11.033,11.731,5.3C0.703,21.633,-11.727,27.881,-34.526,7.771Z" /></g><g id="Group 6" transform="matrix(1,0,0,1,62.2,127.055)"><path fill="#ccfbf7" fill-opacity="1" d="M-36.674,7.77C-36.674,7.77,-37.9,-6.342,-30.664,-16.369C-23.429,-26.395,-6.513,-27.881,6.769,-25.979C20.052,-24.076,20.612,-11.034,9.583,5.299C-1.445,21.632,-13.875,27.881,-36.674,7.77Z" /></g><g id="Group 5" transform="matrix(1,0,0,1,58.942,165.53)"><path fill="#e6fdfb" fill-opacity="1" d="M-39.932,7.77C-39.932,7.77,-41.158,-6.341,-33.923,-16.368C-26.687,-26.394,-9.771,-27.881,3.511,-25.978C16.793,-24.075,17.354,-11.033,6.325,5.3C-4.703,21.632,-17.133,27.881,-39.932,7.77Z" /></g><g id="Group 4" transform="matrix(1,0,0,1,38.917,164.931)"><path stroke-linejoin="round" stroke-linecap="round" stroke-width="1.135" stroke-opacity="1" stroke="#01598b" d="M-31.796,21.185C-27.006,8.529,-13.869,5.985,-13.869,5.985C-13.869,5.985,-4.093,6.478,5.031,-4.136C14.155,-14.751,31.796,-21.185,31.796,-21.185" /></g><g id="Group 3" transform="matrix(1,0,0,1,49.296,75.392)"><path stroke-linejoin="round" stroke-linecap="round" stroke-width="1.135" stroke-opacity="1" stroke="#01598b" d="M-33.08,20.181C-26.673,12.419,-14.593,3.476,-14.593,3.476C-14.593,3.476,-8.533,-2.506,2.524,-7.118C13.58,-11.73,25.33,-13.206,33.08,-20.181" /></g><g id="Group 2" transform="matrix(1,0,0,1,44.632,127.86)"><path stroke-linejoin="round" stroke-linecap="round" stroke-width="1.135" stroke-opacity="1" stroke="#01598b" d="M33.489,-21.301C33.489,-21.301,21.799,-10.688,9.806,-8.996C-2.187,-7.305,-15.341,3.807,-15.341,3.807C-15.341,3.807,-26.886,11.348,-33.489,21.301" /></g><g id="Group 1" transform="matrix(1,0,0,1,31.476,110.181)"><path stroke-linejoin="round" stroke-linecap="round" stroke-width="1.135" stroke-opacity="1" stroke="#01598b" d="M28.639,-105.166C28.639,-105.166,13.58,-93.781,9.283,-81.333C4.985,-68.887,-0.769,-61.931,-0.769,-61.931C-0.769,-61.931,-12.05,-44.605,-15.059,-16.518C-18.069,11.57,-22.2,69.071,-28.639,105.166" /></g></g></g></g></g><g transform="matrix(1,0,0,1,571.003,170.284)" id="Layer 18 Outlines"><g id="Group 1" transform="matrix(1,0,0,1,31.14,40.665)"><path fill="#ccfbf7" fill-opacity="1" d="M21.374,-35.425C12.256,-38.591,-5.792,-40.415,-16.245,-36.862C-27.364,-33.54,-30.89,-24.84,-26.352,-12.301C-21.814,0.235,-17.408,11.689,-15.707,19.464C-13.339,27.471,-13.676,31.798,-3.229,35.424C5.889,38.592,23.937,40.415,34.391,36.862C45.511,33.539,49.035,24.84,44.498,12.301C39.959,-0.236,35.554,-11.692,33.853,-19.465C31.485,-27.473,31.82,-31.797,21.374,-35.425Z" /></g></g><g id="Layer 17 Outlines"><g transform="translate(69.311,462.916)"><g transform="rotate(0)"><animateTransform repeatCount="indefinite" type="rotate" attributeName="transform" dur="10s" begin="0s" calcMode="spline" values="0; 7; 0" keyTimes="0; 0.5; 1" keySplines="0.333 0 0.667 1; 0.333 0 0.667 1" fill="remove" /><g transform="scale(1,1) translate(-19.009,-212.353)"><g id="Group 10" transform="matrix(1,0,0,1,72.614,138.43)"><path fill="#99f7ef" fill-opacity="1" d="M-34.491,23.422C-34.491,23.422,-32.103,7.475,-17.334,-1.004C-2.564,-9.482,3.097,-18.918,34.491,-22.726C20.504,-10.331,21.908,0.142,3.537,14.31C-14.835,28.478,-34.491,23.422,-34.491,23.422Z" /></g><g id="Group 9" transform="matrix(1,0,0,1,14.094,119.536)"><path fill="#99f7ef" fill-opacity="1" d="M1.096,40.932C1.096,40.932,-8.368,28.985,-12.221,15.192C-16.073,1.399,-13.475,-11.276,-9.044,-20.582C-4.613,-29.888,-5.372,-40.933,-5.372,-40.933C-5.372,-40.933,7.135,-28.772,10.615,-8.804C14.095,11.163,11.748,31.492,1.096,40.932Z" /></g><g id="Group 8" transform="matrix(1,0,0,1,91.97,89.731)"><path fill="#99f7ef" fill-opacity="1" d="M-32.048,18.034C-32.048,18.034,-31.069,1.799,-15.97,-7.067C-0.871,-15.933,14.939,-18.034,32.048,-18.02C13.531,5.305,7.698,17.581,-32.048,18.034Z" /></g><g id="Group 7" transform="matrix(1,0,0,1,32.112,66.638)"><path fill="#99f7ef" fill-opacity="1" d="M4.95,38.526C4.95,38.526,-14.983,34.675,-18.112,12.285C-21.243,-10.106,-22.088,-19.731,-16.269,-38.526C-3.976,-19.453,22.088,11.044,4.95,38.526Z" /></g><g id="Group 6" transform="matrix(1,0,0,1,72.846,43.742)"><path fill="#99f7ef" fill-opacity="1" d="M-18.219,43.742C-18.219,43.742,-26.088,29.01,-23.331,13.696C-20.573,-1.618,-23.305,-27.243,-6.422,-43.742C-1.422,-18.59,26.088,11.586,-18.219,43.742Z" /></g><g id="Group 5" transform="matrix(1,0,0,1,41.857,107.67)"><path stroke-linejoin="round" stroke-linecap="round" stroke-width="0.813" stroke-opacity="1" stroke="#01598b" d="M-24.969,100.63C-21.056,73.177,-5.228,21.626,4.187,3.119C13.603,-15.387,13.658,-26.242,13.658,-26.242C13.658,-26.242,14.285,-44.79,19.627,-59.065C24.969,-73.34,18.681,-88.894,23.002,-100.63" /></g><g id="Group 4" transform="matrix(1,0,0,1,61.738,145.371)"><path stroke-linejoin="round" stroke-linecap="round" stroke-width="0.813" stroke-opacity="1" stroke="#01598b" d="M-36.66,25.889C-29.15,17.113,-18.63,14.076,-18.63,14.076C-18.63,14.076,-6.543,12.261,1.156,2.031C8.855,-8.2,23.653,-23.495,36.66,-25.889" /></g><g id="Group 3" transform="matrix(1,0,0,1,28.646,79.826)"><path stroke-linejoin="round" stroke-linecap="round" stroke-width="0.813" stroke-opacity="1" stroke="#01598b" d="M-11.779,-43.886C-11.779,-43.886,-11.278,-28.247,-5.59,-19.521C0.098,-10.795,7.399,21.747,7.399,21.747C7.399,21.747,10.266,34.495,11.779,43.885" /></g><g id="Group 2" transform="matrix(1,0,0,1,81.865,93.395)"><path stroke-linejoin="round" stroke-linecap="round" stroke-width="0.813" stroke-opacity="1" stroke="#01598b" d="M36.924,-19.652C36.924,-19.652,23.843,-6.459,11.817,-3.553C-0.21,-0.648,-7.892,2.419,-16.393,9.952C-16.393,9.952,-22.706,17.706,-36.924,19.653" /></g><g id="Group 1" transform="matrix(1,0,0,1,16.246,135.949)"><path stroke-linejoin="round" stroke-linecap="round" stroke-width="0.813" stroke-opacity="1" stroke="#01598b" d="M-5.165,-49.629C-5.165,-49.629,-0.686,-37.652,-1.538,-23.54C-2.389,-9.428,2.101,1.495,-0.48,19.571C-0.48,19.571,-3.563,28.979,5.165,49.629" /></g></g></g></g></g><g id="Layer 16 Outlines"><g transform="translate(652.487,388.852)"><g transform="rotate(0)"><animateTransform repeatCount="indefinite" type="rotate" attributeName="transform" dur="10s" begin="0s" calcMode="spline" values="0; 7; 0" keyTimes="0; 0.5; 1" keySplines="0.333 0 0.667 1; 0.333 0 0.667 1" fill="remove" /><g transform="scale(1,1) translate(-125.847,-301.955)"><g id="Group 8" transform="matrix(1,0,0,1,60.107,186.989)"><path fill="#99f7ef" fill-opacity="1" d="M28.062,49.316C28.062,49.316,8.125,40.65,-5.995,25.89C-20.115,11.13,-25.369,-6.561,-26.051,-21.247C-26.734,-35.932,-35.115,-49.316,-35.115,-49.316C-35.115,-49.316,-11.207,-42.426,6.596,-19.648C24.399,3.129,35.115,30.28,28.062,49.316Z" /></g><g id="Group 7" transform="matrix(1,0,0,1,102.856,95.707)"><path fill="#99f7ef" fill-opacity="1" d="M6.147,44.225C6.147,44.225,-3.537,23.143,9.495,1.839C22.527,-19.465,41.002,-32.74,62.534,-44.225C54.923,-2.434,55.84,16.932,6.147,44.225Z" /></g><g id="Group 6" transform="matrix(1,0,0,1,40.79,114.979)"><path fill="#99f7ef" fill-opacity="1" d="M37.708,37.05C37.708,37.05,10.045,45.609,-8.947,19.548C-27.939,-6.513,-35.472,-18.053,-40.789,-45.609C-12.503,-29.881,40.79,-9.043,37.708,37.05Z" /></g><g id="Group 5" transform="matrix(1,0,0,1,70.487,58.99)"><path fill="#99f7ef" fill-opacity="1" d="M18.219,58.99C18.219,58.99,-1.586,45.749,-8.414,24.632C-15.241,3.514,-35.906,-26.885,-25.761,-58.99C-2.561,-30.713,52.333,-11.251,18.219,58.99Z" /></g><g id="Group 4" transform="matrix(1,0,0,1,84.978,152.619)"><path stroke-linejoin="round" stroke-linecap="round" stroke-width="1.159" stroke-opacity="1" stroke="#01598b" d="M37.488,142.712C23.951,105.548,9.2,30.059,8.601,0.448C8.003,-29.162,0.773,-42.855,0.773,-42.855C0.773,-42.855,-10.908,-66.608,-13.787,-88.157C-16.665,-109.705,-35.033,-125.044,-37.488,-142.712" /></g><g id="Group 3" transform="matrix(1,0,0,1,50.874,125.816)"><path stroke-linejoin="round" stroke-linecap="round" stroke-width="1.159" stroke-opacity="1" stroke="#01598b" d="M-44.323,-47.286C-44.323,-47.286,-33.178,-27.95,-20.156,-20.798C-7.135,-13.646,23.93,22.38,23.93,22.38C23.93,22.38,36.108,36.489,44.323,47.286" /></g><g id="Group 2" transform="matrix(1,0,0,1,126.943,107.101)"><path stroke-linejoin="round" stroke-linecap="round" stroke-width="1.159" stroke-opacity="1" stroke="#01598b" d="M33.235,-49.548C33.235,-49.548,25.651,-24.156,12.476,-12.415C-0.699,-0.674,-8.3,8.349,-13.928,23.542C-13.928,23.542,-16.658,37.54,-33.235,49.548" /></g><g id="Group 1" transform="matrix(1,0,0,1,73.011,204.751)"><path stroke-linejoin="round" stroke-linecap="round" stroke-width="1.159" stroke-opacity="1" stroke="#01598b" d="M-39.866,-58.956C-39.866,-58.956,-26.178,-46.902,-17.761,-28.578C-9.343,-10.253,3.649,0.467,12.556,24.941C12.556,24.941,15.003,38.85,39.866,58.957" /></g></g></g></g></g><g id="Layer 15 Outlines"><g transform="translate(309.427,450.331)"><g transform="rotate(0)"><animateTransform repeatCount="indefinite" type="rotate" attributeName="transform" dur="10s" begin="0s" calcMode="spline" values="0; 7; 0" keyTimes="0; 0.5; 1" keySplines="0.333 0 0.667 1; 0.333 0 0.667 1" fill="remove" /><g transform="scale(1,1) translate(-114.945,-203.573)"><g id="Group 12" transform="matrix(1,0,0,1,42.667,31.331)"><path fill="#ccfbf7" fill-opacity="1" d="M-0.608,31.331C-0.608,31.331,-14.699,26.737,-21.393,15.667C-28.088,4.597,-22.598,-12.302,-15.33,-24.314C-8.063,-36.325,4.726,-31.528,15.941,-14.225C27.157,3.079,28.088,17.605,-0.608,31.331Z" /></g><g id="Group 11" transform="matrix(1,0,0,1,26.368,89.059)"><path fill="#ccfbf7" fill-opacity="1" d="M21.228,16.851C21.228,16.851,26.368,3.333,22.058,-8.532C17.748,-20.396,1.548,-26.575,-12.027,-28.41C-25.603,-30.245,-29.791,-17.592,-23.514,1.525C-17.237,20.641,-6.772,30.245,21.228,16.851Z" /></g><g id="Group 10" transform="matrix(1,0,0,1,49.99,143.942)"><path fill="#e6fdfb" fill-opacity="1" d="M30.028,12.941C30.028,12.941,30.184,-1.52,22.042,-11.167C13.901,-20.814,-3.436,-21.019,-16.81,-18.054C-30.184,-15.088,-29.746,-1.768,-17.254,14.005C-4.763,29.779,8.374,35.179,30.028,12.941Z" /></g><g id="Group 9" transform="matrix(1,0,0,1,74.343,52.3)"><path fill="#e6fdfb" fill-opacity="1" d="M-12.787,30.109C-12.787,30.109,-22.792,19.668,-23.451,7.061C-24.109,-5.545,-11.603,-17.552,0.182,-24.536C11.966,-31.521,20.758,-21.504,22.434,-1.454C24.11,18.596,18.22,31.521,-12.787,30.109Z" /></g><g id="Group 8" transform="matrix(1,0,0,1,103.762,95.877)"><path fill="#ccfbf7" fill-opacity="1" d="M-12.787,30.109C-12.787,30.109,-22.792,19.668,-23.451,7.061C-24.11,-5.545,-11.603,-17.552,0.182,-24.536C11.966,-31.521,20.758,-21.503,22.434,-1.452C24.11,18.598,18.22,31.521,-12.787,30.109Z" /></g><g id="Group 7" transform="matrix(1,0,0,1,122.489,130.658)"><path fill="#e6fdfb" fill-opacity="1" d="M-12.078,30.11C-12.078,30.11,-22.083,19.667,-22.742,7.06C-23.401,-5.546,-10.894,-17.553,0.89,-24.537C12.675,-31.522,21.466,-21.504,23.143,-1.453C24.819,18.597,18.928,31.522,-12.078,30.11Z" /></g><g id="Group 6" transform="matrix(1,0,0,1,118.748,141.371)"><path stroke-linejoin="round" stroke-linecap="round" stroke-width="1.159" stroke-opacity="1" stroke="#01598b" d="M-9.597,37.2C-13.884,24.066,-5.061,13.637,-5.061,13.637C-5.061,13.637,3.031,7.773,3.499,-6.509C3.966,-20.792,13.885,-37.199,13.885,-37.199" /></g><g id="Group 5" transform="matrix(1,0,0,1,71.859,63.494)"><path stroke-linejoin="round" stroke-linecap="round" stroke-width="1.159" stroke-opacity="1" stroke="#01598b" d="M-13.406,37.222C-13.275,26.947,-9.386,12.102,-9.386,12.102C-9.386,12.102,-8.392,3.466,-2.548,-7.278C3.298,-18.022,11.703,-26.714,13.406,-37.222" /></g><g id="Group 4" transform="matrix(1,0,0,1,63.296,149.276)"><path stroke-linejoin="round" stroke-linecap="round" stroke-width="1.159" stroke-opacity="1" stroke="#01598b" d="M-38.657,-17.823C-38.657,-17.823,-25.559,-16.562,-13.783,-5.772C-2.007,5.018,-4.009,7.556,12.781,7.631C12.781,7.631,28.651,5.781,38.657,17.823" /></g><g id="Group 3" transform="matrix(1,0,0,1,101.161,108.221)"><path stroke-linejoin="round" stroke-linecap="round" stroke-width="1.159" stroke-opacity="1" stroke="#01598b" d="M13.572,-38.376C13.572,-38.376,11.062,-22.452,2.602,-13.433C-5.857,-4.412,-9.212,12.846,-9.212,12.846C-9.212,12.846,-13.572,26.232,-12.456,38.376" /></g><g id="Group 2" transform="matrix(1,0,0,1,77.593,102.573)"><path stroke-linejoin="round" stroke-linecap="round" stroke-width="1.159" stroke-opacity="1" stroke="#01598b" d="M-42.157,-101.993C-42.157,-101.993,-46.853,-83.299,-42.308,-70.646C-37.762,-57.994,-37.889,-48.779,-37.889,-48.779C-37.889,-48.779,-35.78,-27.777,-20.201,-3.506C-4.624,20.766,28.881,69.156,46.853,101.993" /></g><g id="Group 1" transform="matrix(1,0,0,1,35.849,90.407)"><path stroke-linejoin="round" stroke-linecap="round" stroke-width="1.159" stroke-opacity="1" stroke="#01598b" d="M-32.887,-25.973C-32.887,-25.973,-20.765,-17.619,-10.872,-5.675C-7.072,-1.086,-3.372,2.92,-0.256,6.113C4.504,10.991,10.103,14.903,16.316,17.704C20.769,19.711,26.651,22.528,32.887,25.974" /></g></g></g></g></g><g id="Layer 13 Outlines"><g transform="translate(203.42,453.15)"><g transform="rotate(0)"><animateTransform repeatCount="indefinite" type="rotate" attributeName="transform" dur="10s" begin="0s" calcMode="spline" values="0; 7; 0" keyTimes="0; 0.5; 1" keySplines="0.333 0 0.667 1; 0.333 0 0.667 1" fill="remove" /><g transform="scale(1,1) translate(-75.497,-167.922)"><g id="Group 1" transform="matrix(1,0,0,1,55.497,63.37)"><path fill="#034b70" fill-opacity="1" d="M36.618,68.203C36.609,73.851,34.578,78.28,32.185,83.471C29.118,90.122,25.667,97.64,25.282,110.09C16.703,100.016,8.69,88.81,1.563,76.909C1.468,38.387,-8.212,25.782,-15.34,16.506C-17.984,13.064,-20.266,10.093,-21.642,6.408C-23.764,0.722,-26.608,-2.619,-29.618,-6.156C-34.217,-11.562,-39.431,-17.687,-43.48,-34.071C-43.539,-34.312,-43.746,-34.487,-43.992,-34.51C-44.124,-34.521,-44.254,-34.486,-44.361,-34.416C-44.452,-34.357,-44.527,-34.273,-44.572,-34.169C-50.747,-20.343,-50.951,-12.175,-51.189,-2.718C-51.312,2.105,-51.449,7.571,-52.41,14.378C-55.248,34.483,-44.735,45.747,-31.424,60.006L-30.887,60.582C-17.513,74.913,0.603,81.044,0.783,81.104C0.961,81.164,1.169,81.126,1.302,81.027C1.452,80.92,1.543,80.747,1.545,80.562C1.552,80.065,1.549,79.592,1.552,79.101C8.743,90.918,16.775,102.056,25.381,112.022C25.386,112.028,25.394,112.026,25.399,112.031C25.457,112.095,25.543,112.109,25.624,112.141C25.684,112.165,25.732,112.213,25.797,112.215C25.804,112.216,25.807,112.223,25.814,112.223C25.886,112.224,25.937,112.172,26.001,112.147C26.068,112.125,26.144,112.131,26.199,112.083C26.204,112.078,26.203,112.069,26.208,112.064C26.255,112.021,26.261,111.954,26.292,111.897C26.333,111.819,26.389,111.752,26.391,111.667C26.392,111.66,26.399,111.656,26.399,111.649C26.529,98.505,30.093,90.775,33.238,83.956C35.485,79.083,37.517,74.648,37.743,69.14C37.832,69.158,37.925,69.159,38.015,69.134C38.314,69.05,45.181,66.893,47.289,48.322C47.769,44.086,48.648,39.942,49.5,35.935C52.326,22.639,55.247,8.89,43.594,-9.533C28.813,-32.901,20.97,-62.383,20.893,-62.677C20.83,-62.915,20.625,-63.089,20.38,-63.109C20.247,-63.12,20.12,-63.085,20.014,-63.015C19.924,-62.956,19.851,-62.873,19.804,-62.769C19.689,-62.512,8.25,-36.88,9.263,-16.598C9.664,-8.557,8.309,-2.882,6.997,2.605C5.029,10.839,3.329,17.949,8.563,30.232C16.097,47.914,32.697,64.448,36.618,68.203Z" /></g></g></g></g></g><g id="Layer 12 Outlines"><g transform="translate(595.462,446.113)"><g transform="rotate(0)"><animateTransform repeatCount="indefinite" type="rotate" attributeName="transform" dur="10s" begin="0s" calcMode="spline" values="0; 7; 0" keyTimes="0; 0.5; 1" keySplines="0.333 0 0.667 1; 0.333 0 0.667 1" fill="remove" /><g transform="scale(1,1) translate(-54.512,-161.488)"><g id="Group 1" transform="matrix(1,0,0,1,46.167,63.672)"><path fill="#034b70" fill-opacity="1" d="M28.604,65.464C26.64,70.761,23.203,74.213,19.162,78.254C13.982,83.434,8.142,89.293,3.472,100.84C-1.09,88.42,-4.731,75.134,-7.298,61.501C5.943,25.325,1.223,10.151,-2.253,-1.019C-3.543,-5.163,-4.657,-8.741,-4.673,-12.675C-4.696,-18.744,-6.208,-22.862,-7.808,-27.223C-10.252,-33.886,-13.024,-41.435,-11.154,-58.21C-11.125,-58.456,-11.258,-58.692,-11.482,-58.798C-11.603,-58.853,-11.736,-58.867,-11.861,-58.838C-11.966,-58.813,-12.066,-58.761,-12.144,-58.68C-22.721,-47.845,-25.742,-40.252,-29.237,-31.462C-31.021,-26.979,-33.041,-21.898,-36.298,-15.845C-45.917,2.037,-39.953,16.242,-32.399,34.226L-32.095,34.952C-24.506,53.027,-9.631,65.048,-9.483,65.167C-9.336,65.284,-9.127,65.321,-8.968,65.274C-8.791,65.226,-8.646,65.095,-8.58,64.922C-8.402,64.458,-8.24,64.013,-8.068,63.555C-5.41,77.129,-1.728,90.359,2.897,102.688C2.9,102.694,2.908,102.695,2.911,102.702C2.943,102.781,3.019,102.824,3.083,102.883C3.132,102.926,3.161,102.987,3.22,103.012C3.226,103.015,3.228,103.023,3.234,103.026C3.301,103.051,3.367,103.02,3.435,103.02C3.506,103.022,3.575,103.053,3.643,103.027C3.65,103.025,3.652,103.016,3.659,103.013C3.717,102.988,3.747,102.928,3.795,102.885C3.86,102.826,3.935,102.782,3.968,102.703C3.97,102.696,3.979,102.695,3.981,102.69C8.652,90.402,14.67,84.383,19.981,79.073C23.775,75.279,27.216,71.822,29.334,66.732C29.412,66.78,29.499,66.814,29.592,66.82C29.902,66.846,37.09,67.198,45.495,50.504C47.411,46.696,49.67,43.112,51.856,39.648C59.109,28.151,66.607,16.262,62.048,-5.056C56.268,-32.095,59.112,-62.47,59.142,-62.771C59.165,-63.016,59.033,-63.251,58.81,-63.354C58.689,-63.41,58.557,-63.422,58.434,-63.392C58.33,-63.369,58.231,-63.315,58.151,-63.234C57.956,-63.033,38.352,-42.943,32.284,-23.564C29.878,-15.881,26.642,-11.026,23.513,-6.332C18.817,0.712,14.761,6.795,15.422,20.131C16.372,39.327,26.224,60.584,28.604,65.464Z" /></g></g></g></g></g><g id="Layer 11 Outlines"><g transform="translate(368.844,463.024)"><g transform="rotate(0)"><animateTransform repeatCount="indefinite" type="rotate" attributeName="transform" dur="10s" begin="0s" calcMode="spline" values="0; 7; 0" keyTimes="0; 0.5; 1" keySplines="0.333 0 0.667 1; 0.333 0 0.667 1" fill="remove" /><g transform="scale(1,1) translate(-50.832,-212.19)"><g id="Group 21" transform="matrix(1,0,0,1,34.536,71.995)"><path stroke-linejoin="round" stroke-linecap="round" stroke-width="1.159" stroke-opacity="1" stroke="#01598b" d="M9.063,69.098C9.063,69.098,-7.578,55.78,-16.118,35.38C-24.658,14.982,-31.639,-1.065,-20.812,-21.141C-9.985,-41.218,-11.627,-50.805,6.269,-69.098C2.751,-37.856,13.449,-34.957,13.497,-17.852C13.543,-0.748,31.639,10.382,9.063,69.098Z" /></g><g id="Group 20" transform="matrix(1,0,0,1,73.322,110.76)"><path stroke-linejoin="round" stroke-linecap="round" stroke-width="1.159" stroke-opacity="1" stroke="#01598b" d="M-14.539,73.165C-14.539,73.165,-27.06,44.539,-28.252,19.972C-29.444,-4.596,-16.157,-7.009,-9.286,-28.881C-2.414,-50.753,19.667,-73.165,19.667,-73.165C19.667,-73.165,16.316,-38.955,22.881,-8.11C29.444,22.735,13.646,35.295,4.273,53.87C-5.101,72.445,-14.539,73.165,-14.539,73.165Z" /></g><g id="Group 19" transform="matrix(1,0,0,1,61.205,110.19)"><path stroke-linejoin="round" stroke-linecap="round" stroke-width="1.159" stroke-opacity="1" stroke="#01598b" d="M-20.4,-107.293C-20.4,-107.293,-31.784,-77.59,-29.438,-50.863C-27.092,-24.138,-27.729,2.129,-19.507,24.111C-19.507,24.111,-16.134,32.471,-14.182,59.11C-12.231,85.749,-11.338,91.519,-2.506,107.293C1.641,84.145,-6.214,75.411,0.212,58.553C11.276,29.531,16.168,-3.962,17.947,-26.828C19.725,-49.695,31.784,-72.596,31.784,-72.596" /></g><g id="Group 18" transform="matrix(1,0,0,1,25.545,107.755)"><path stroke-linejoin="round" stroke-linecap="round" stroke-width="1.159" stroke-opacity="1" stroke="#01598b" d="M-12.172,-12.794C-12.172,-12.794,-2.002,1.24,12.172,12.794" /></g><g id="Group 17" transform="matrix(1,0,0,1,45.455,100.42)"><path stroke-linejoin="round" stroke-linecap="round" stroke-width="1.159" stroke-opacity="1" stroke="#01598b" d="M9.463,-10.614C9.463,-10.614,2.299,5.032,-9.463,10.614" /></g><g id="Group 16" transform="matrix(1,0,0,1,21.335,82.521)"><path stroke-linejoin="round" stroke-linecap="round" stroke-width="1.159" stroke-opacity="1" stroke="#01598b" d="M-13.017,-14.073C-13.017,-14.073,-1.111,4.15,13.017,14.073" /></g><g id="Group 15" transform="matrix(1,0,0,1,41.836,76.832)"><path stroke-linejoin="round" stroke-linecap="round" stroke-width="1.159" stroke-opacity="1" stroke="#01598b" d="M7.988,-13.259C7.988,-13.259,3.487,6.291,-7.988,13.258" /></g><g id="Group 14" transform="matrix(1,0,0,1,24.463,61.324)"><path stroke-linejoin="round" stroke-linecap="round" stroke-width="1.159" stroke-opacity="1" stroke="#01598b" d="M-8.501,-14.818C-8.501,-14.818,-3.843,4.442,8.501,14.818" /></g><g id="Group 13" transform="matrix(1,0,0,1,39.088,53.41)"><path stroke-linejoin="round" stroke-linecap="round" stroke-width="1.159" stroke-opacity="1" stroke="#01598b" d="M6.875,-11.432C6.875,-11.432,3.187,6.75,-6.875,11.432" /></g><g id="Group 12" transform="matrix(1,0,0,1,27.483,39.823)"><path stroke-linejoin="round" stroke-linecap="round" stroke-width="1.159" stroke-opacity="1" stroke="#01598b" d="M-3.973,-11.03C-3.973,-11.03,-1.937,4.123,3.973,11.03" /></g><g id="Group 11" transform="matrix(1,0,0,1,36.865,32.961)"><path stroke-linejoin="round" stroke-linecap="round" stroke-width="1.159" stroke-opacity="1" stroke="#01598b" d="M4.455,-5.624C4.455,-5.624,1.282,2.418,-4.455,5.624" /></g><g id="Group 10" transform="matrix(1,0,0,1,32.04,20.639)"><path stroke-linejoin="round" stroke-linecap="round" stroke-width="1.159" stroke-opacity="1" stroke="#01598b" d="M-0.954,-6.141C-0.954,-6.141,-2.121,0.231,2.121,6.141" /></g><g id="Group 9" transform="matrix(1,0,0,1,79.777,62.185)"><path stroke-linejoin="round" stroke-linecap="round" stroke-width="1.159" stroke-opacity="1" stroke="#01598b" d="M-1.764,-6.493C-1.764,-6.493,-1.702,-0.086,1.764,6.493" /></g><g id="Group 8" transform="matrix(1,0,0,1,85.84,76.165)"><path stroke-linejoin="round" stroke-linecap="round" stroke-width="1.159" stroke-opacity="1" stroke="#01598b" d="M6.544,-5.6C6.544,-5.6,1.833,2.4,-6.544,5.6" /></g><g id="Group 7" transform="matrix(1,0,0,1,73.576,82.747)"><path stroke-linejoin="round" stroke-linecap="round" stroke-width="1.159" stroke-opacity="1" stroke="#01598b" d="M-4.409,-12.895C-4.409,-12.895,-4.196,2.837,4.409,12.895" /></g><g id="Group 6" transform="matrix(1,0,0,1,85.499,99.141)"><path stroke-linejoin="round" stroke-linecap="round" stroke-width="1.159" stroke-opacity="1" stroke="#01598b" d="M8.84,-7.031C8.84,-7.031,3.625,0.402,-8.84,7.031" /></g><g id="Group 5" transform="matrix(1,0,0,1,66.911,107.214)"><path stroke-linejoin="round" stroke-linecap="round" stroke-width="1.159" stroke-opacity="1" stroke="#01598b" d="M-7.123,-15.107C-7.123,-15.107,-4.81,5.04,7.123,15.107" /></g><g id="Group 4" transform="matrix(1,0,0,1,84.823,123.79)"><path stroke-linejoin="round" stroke-linecap="round" stroke-width="1.159" stroke-opacity="1" stroke="#01598b" d="M12.873,-9.871C12.873,-9.871,4.598,3.465,-12.873,9.871" /></g><g id="Group 3" transform="matrix(1,0,0,1,57.701,131.023)"><path stroke-linejoin="round" stroke-linecap="round" stroke-width="1.159" stroke-opacity="1" stroke="#01598b" d="M-10.166,-18.035C-10.166,-18.035,-5.959,2.785,10.166,18.035" /></g><g id="Group 2" transform="matrix(1,0,0,1,75.993,154.266)"><path stroke-linejoin="round" stroke-linecap="round" stroke-width="1.159" stroke-opacity="1" stroke="#01598b" d="M11.777,-6.659C11.777,-6.659,4.177,4.03,-11.777,6.659" /></g><g id="Group 1" transform="matrix(1,0,0,1,54.744,162.984)"><path stroke-linejoin="round" stroke-linecap="round" stroke-width="1.159" stroke-opacity="1" stroke="#01598b" d="M-5.788,-8.326C-5.788,-8.326,1.42,3.222,5.788,8.326" /></g></g></g></g></g><g id="Layer 8 Outlines"><g transform="translate(20.498,364.482)"><g transform="rotate(0)"><animateTransform repeatCount="indefinite" type="rotate" attributeName="transform" dur="10s" begin="0s" calcMode="spline" values="0; 7; 0" keyTimes="0; 0.5; 1" keySplines="0.333 0 0.667 1; 0.333 0 0.667 1" fill="remove" /><g transform="scale(1,1) translate(-58.016,-48.182)"><g id="Group 6" transform="matrix(1,0,0,1,335.276,-107.264)"><path fill="url(#null)" d="M-219.243,139.156C-223.724,159.948,-233.668,167.575,-243.331,169.652C-238.578,175.754,-234.56,184.628,-234.588,197.199C-256.617,199.568,-267.474,191.047,-272.779,183.022C-276.412,194.561,-286.755,209.037,-316.232,201.585C-315.045,188.937,-311.041,180.154,-306.078,174.044C-315.656,173.79,-326.507,168.314,-335.276,149.947C-322.914,141.501,-312.188,139.496,-303.529,140.346C-308.304,132.705,-309.79,121.931,-301.346,107.264C-287.725,113.095,-279.93,120.612,-275.505,127.831C-271.036,121.15,-263.613,114.313,-251.354,108.77C-244.759,119.71,-243.879,128.537,-245.822,135.54C-238.598,134.422,-229.799,135.107,-219.243,139.156Z" /></g><g id="Group 5" transform="matrix(1,0,0,1,335.276,-109.968)"><path fill="url(#null)" d="M-309.392,157.963C-309.392,157.963,-304.271,171.337,-291.216,170.591C-296.776,177.639,-297.642,187.665,-297.642,187.665C-297.642,187.665,-280.651,191.563,-275.229,175.645C-265.455,190.323,-249.806,181.385,-249.806,181.385C-249.806,181.385,-253.011,173.337,-259.353,168.072C-247.041,168.499,-241.78,155.967,-241.78,155.967C-241.78,155.967,-250.172,150.971,-258.996,151.211C-254.244,142.359,-259.698,132.701,-259.698,132.701C-259.698,132.701,-269.535,135.027,-273.676,144.736C-278.512,136.896,-288.082,131.816,-288.082,131.816C-288.082,131.816,-296.5,144.76,-292.033,153.759C-300.845,153.239,-309.392,157.963,-309.392,157.963Z" /></g><g id="Group 4" transform="matrix(1,0,0,1,58.747,42.632)"><path fill="#ccfbf7" fill-opacity="1" d="M-4.438,-11.486C-4.438,-11.486,-9.115,-3.533,-4.958,3.977C-0.8,11.486,9.115,5.699,6.622,-0.604C4.129,-6.907,-4.438,-11.486,-4.438,-11.486Z" /></g><g id="Group 3" transform="matrix(1,0,0,1,54.42,54.238)"><path fill="#ccfbf7" fill-opacity="1" d="M-10.729,-6.54C-10.729,-6.54,-9.139,2.549,-1.107,5.576C6.925,8.603,10.729,-2.229,4.747,-5.415C-1.236,-8.602,-10.729,-6.54,-10.729,-6.54Z" /></g><g id="Group 2" transform="matrix(1,0,0,1,67.543,48.311)"><path fill="#ccfbf7" fill-opacity="1" d="M3.821,-11.561C3.821,-11.561,8.88,-3.844,5.092,3.859C1.306,11.561,-8.88,6.263,-6.696,-0.154C-4.512,-6.57,3.821,-11.561,3.821,-11.561Z" /></g><g id="Group 1" transform="matrix(1,0,0,1,62.85,53.003)"><path fill="#ccfbf7" fill-opacity="1" d="M-4.438,-11.486C-4.438,-11.486,-9.115,-3.533,-4.958,3.976C-0.8,11.486,9.115,5.698,6.622,-0.605C4.128,-6.908,-4.438,-11.486,-4.438,-11.486Z" /></g></g></g></g></g><g id="Layer 8 Outlines 2"><g transform="translate(609.498,386.482)"><g transform="rotate(0)"><animateTransform repeatCount="indefinite" type="rotate" attributeName="transform" dur="10s" begin="0s" calcMode="spline" values="0; 7; 0" keyTimes="0; 0.5; 1" keySplines="0.333 0 0.667 1; 0.333 0 0.667 1" fill="remove" /><g transform="scale(1,1) translate(-58.016,-48.182)"><g id="Group 6" transform="matrix(1,0,0,1,335.276,-107.264)"><path fill="url(#null)" d="M-219.243,139.156C-223.724,159.948,-233.668,167.575,-243.331,169.652C-238.578,175.754,-234.56,184.628,-234.588,197.199C-256.617,199.568,-267.474,191.047,-272.779,183.022C-276.412,194.561,-286.755,209.037,-316.232,201.585C-315.045,188.937,-311.041,180.154,-306.078,174.044C-315.656,173.79,-326.507,168.314,-335.276,149.947C-322.914,141.501,-312.188,139.496,-303.529,140.346C-308.304,132.705,-309.79,121.931,-301.346,107.264C-287.725,113.095,-279.93,120.612,-275.505,127.831C-271.036,121.15,-263.613,114.313,-251.354,108.77C-244.759,119.71,-243.879,128.537,-245.822,135.54C-238.598,134.422,-229.799,135.107,-219.243,139.156Z" /></g><g id="Group 5" transform="matrix(1,0,0,1,335.276,-109.968)"><path fill="url(#null)" d="M-309.392,157.963C-309.392,157.963,-304.271,171.337,-291.216,170.591C-296.776,177.639,-297.642,187.665,-297.642,187.665C-297.642,187.665,-280.651,191.563,-275.229,175.645C-265.455,190.323,-249.806,181.385,-249.806,181.385C-249.806,181.385,-253.011,173.337,-259.353,168.072C-247.041,168.499,-241.78,155.967,-241.78,155.967C-241.78,155.967,-250.172,150.971,-258.996,151.211C-254.244,142.359,-259.698,132.701,-259.698,132.701C-259.698,132.701,-269.535,135.027,-273.676,144.736C-278.512,136.896,-288.082,131.816,-288.082,131.816C-288.082,131.816,-296.5,144.76,-292.033,153.759C-300.845,153.239,-309.392,157.963,-309.392,157.963Z" /></g><g id="Group 4" transform="matrix(1,0,0,1,58.747,42.632)"><path fill="#ccfbf7" fill-opacity="1" d="M-4.438,-11.486C-4.438,-11.486,-9.115,-3.533,-4.958,3.977C-0.8,11.486,9.115,5.699,6.622,-0.604C4.129,-6.907,-4.438,-11.486,-4.438,-11.486Z" /></g><g id="Group 3" transform="matrix(1,0,0,1,54.42,54.238)"><path fill="#ccfbf7" fill-opacity="1" d="M-10.729,-6.54C-10.729,-6.54,-9.139,2.549,-1.107,5.576C6.925,8.603,10.729,-2.229,4.747,-5.415C-1.236,-8.602,-10.729,-6.54,-10.729,-6.54Z" /></g><g id="Group 2" transform="matrix(1,0,0,1,67.543,48.311)"><path fill="#ccfbf7" fill-opacity="1" d="M3.821,-11.561C3.821,-11.561,8.88,-3.844,5.092,3.859C1.306,11.561,-8.88,6.263,-6.696,-0.154C-4.512,-6.57,3.821,-11.561,3.821,-11.561Z" /></g><g id="Group 1" transform="matrix(1,0,0,1,62.85,53.003)"><path fill="#ccfbf7" fill-opacity="1" d="M-4.438,-11.486C-4.438,-11.486,-9.115,-3.533,-4.958,3.976C-0.8,11.486,9.115,5.698,6.622,-0.605C4.128,-6.908,-4.438,-11.486,-4.438,-11.486Z" /></g></g></g></g></g><g id="Layer 8 Outlines 3"><g transform="translate(363.498,416.482)"><g transform="rotate(0)"><animateTransform repeatCount="indefinite" type="rotate" attributeName="transform" dur="10s" begin="0s" calcMode="spline" values="0; 7; 0" keyTimes="0; 0.5; 1" keySplines="0.333 0 0.667 1; 0.333 0 0.667 1" fill="remove" /><g transform="scale(1,1) translate(-58.016,-48.182)"><g id="Group 6" transform="matrix(1,0,0,1,335.276,-107.264)"><path fill="url(#null)" d="M-219.243,139.156C-223.724,159.948,-233.668,167.575,-243.331,169.652C-238.578,175.754,-234.56,184.628,-234.588,197.199C-256.617,199.568,-267.474,191.047,-272.779,183.022C-276.412,194.561,-286.755,209.037,-316.232,201.585C-315.045,188.937,-311.041,180.154,-306.078,174.044C-315.656,173.79,-326.507,168.314,-335.276,149.947C-322.914,141.501,-312.188,139.496,-303.529,140.346C-308.304,132.705,-309.79,121.931,-301.346,107.264C-287.725,113.095,-279.93,120.612,-275.505,127.831C-271.036,121.15,-263.613,114.313,-251.354,108.77C-244.759,119.71,-243.879,128.537,-245.822,135.54C-238.598,134.422,-229.799,135.107,-219.243,139.156Z" /></g><g id="Group 5" transform="matrix(1,0,0,1,335.276,-109.968)"><path fill="url(#null)" d="M-309.392,157.963C-309.392,157.963,-304.271,171.337,-291.216,170.591C-296.776,177.639,-297.642,187.665,-297.642,187.665C-297.642,187.665,-280.651,191.563,-275.229,175.645C-265.455,190.323,-249.806,181.385,-249.806,181.385C-249.806,181.385,-253.011,173.337,-259.353,168.072C-247.041,168.499,-241.78,155.967,-241.78,155.967C-241.78,155.967,-250.172,150.971,-258.996,151.211C-254.244,142.359,-259.698,132.701,-259.698,132.701C-259.698,132.701,-269.535,135.027,-273.676,144.736C-278.512,136.896,-288.082,131.816,-288.082,131.816C-288.082,131.816,-296.5,144.76,-292.033,153.759C-300.845,153.239,-309.392,157.963,-309.392,157.963Z" /></g><g id="Group 4" transform="matrix(1,0,0,1,58.747,42.632)"><path fill="#ccfbf7" fill-opacity="1" d="M-4.438,-11.486C-4.438,-11.486,-9.115,-3.533,-4.958,3.977C-0.8,11.486,9.115,5.699,6.622,-0.604C4.129,-6.907,-4.438,-11.486,-4.438,-11.486Z" /></g><g id="Group 3" transform="matrix(1,0,0,1,54.42,54.238)"><path fill="#ccfbf7" fill-opacity="1" d="M-10.729,-6.54C-10.729,-6.54,-9.139,2.549,-1.107,5.576C6.925,8.603,10.729,-2.229,4.747,-5.415C-1.236,-8.602,-10.729,-6.54,-10.729,-6.54Z" /></g><g id="Group 2" transform="matrix(1,0,0,1,67.543,48.311)"><path fill="#ccfbf7" fill-opacity="1" d="M3.821,-11.561C3.821,-11.561,8.88,-3.844,5.092,3.859C1.306,11.561,-8.88,6.263,-6.696,-0.154C-4.512,-6.57,3.821,-11.561,3.821,-11.561Z" /></g><g id="Group 1" transform="matrix(1,0,0,1,62.85,53.003)"><path fill="#ccfbf7" fill-opacity="1" d="M-4.438,-11.486C-4.438,-11.486,-9.115,-3.533,-4.958,3.976C-0.8,11.486,9.115,5.698,6.622,-0.605C4.128,-6.908,-4.438,-11.486,-4.438,-11.486Z" /></g></g></g></g></g><g id="Layer 7 Outlines"><g transform="translate(328.78,328.123)"><animateTransform repeatCount="indefinite" type="translate" attributeName="transform" dur="10s" begin="0s" calcMode="spline" values="328.78 328.123; 342.78 331.123; 328.78 328.123" keyTimes="0; 0.5; 1" keySplines="0.333 0 0.667 1; 0.333 0 0.667 1" fill="remove" /><g transform="rotate(0)"><animateTransform repeatCount="indefinite" type="rotate" attributeName="transform" dur="4s" begin="0s" calcMode="spline" values="0; 7; 0" keyTimes="0; 0.5; 1" keySplines="0.333 0 0.667 1; 0.333 0 0.667 1" fill="remove" /><g transform="scale(1,1) translate(-29.305,-29.102)"><g id="Group 5" transform="matrix(1,0,0,1,15.197,32.391)"><g id="Group 1" fill="url(#null)"><path d="M-2.337,-11.536C-12.004,-13.339,-16.963,-4.086,-14.624,0.315C-12.283,4.717,-15.329,7.53,-6.851,10.435C1.628,13.339,5.292,8.869,7.821,3.66C10.352,-1.549,14.648,-3.287,14.648,-3.287L15.197,-4.42C10.431,-2.77,7.329,-9.734,-2.337,-11.536Z" /></g></g><g id="Group 4" transform="matrix(1,0,0,1,24.063,14.392)"><g id="Group 1" fill="url(#null)"><path d="M11.263,5.516C17.083,0.754,17.086,-8.721,10.756,-11.536C4.426,-14.351,1.336,-15.069,-5.12,-13.762C-11.576,-12.455,-15.068,-5.99,-16.077,-0.857C-17.086,4.276,-14.248,8.183,-6.124,10.059C2.001,11.935,3.139,14.393,3.139,14.393L5.599,14.214C5.599,14.214,5.442,10.278,11.263,5.516Z" /></g></g><g id="Group 3" transform="matrix(1,0,0,1,31.195,43.636)"><g id="Group 1" fill="url(#null)"><path d="M-10.353,-6.536C-16.658,-2.435,-17.692,6.981,-11.705,10.469C-5.719,13.956,-2.726,15.007,3.834,14.41C10.395,13.813,14.568,7.764,16.13,2.772C17.692,-2.22,15.295,-6.411,7.423,-9.16C-0.449,-11.909,-1.312,-14.477,-1.312,-14.477L-3.777,-14.567C-3.777,-14.567,-4.05,-10.637,-10.353,-6.536Z" /></g></g><g id="Group 2" transform="matrix(1,0,0,1,44.068,25.104)"><g id="Group 1" fill="url(#null)"><path d="M14.38,1.921C15.776,-6.362,7.894,-14.944,0.033,-14.97C-7.827,-14.997,-8.892,-6.809,-10.472,-2.533C-12.05,1.743,-14.542,3.603,-14.542,3.603L-14.081,5.505C-6.012,4.897,-0.256,14.997,5.155,13.902C10.567,12.806,12.984,10.205,14.38,1.921Z" /></g></g><g id="Group 1" transform="matrix(1,0,0,1,28.499,29.623)"><path fill="#e6fdfb" fill-opacity="1" d="M2.4,1.591C1.521,2.916,-0.266,3.278,-1.591,2.4C-2.916,1.52,-3.279,-0.266,-2.4,-1.592C-1.52,-2.917,0.267,-3.279,1.592,-2.4C2.918,-1.521,3.279,0.266,2.4,1.591Z" /></g></g></g></g></g><g id="Layer 6 Outlines"><g transform="translate(24.188,427.329)"><g transform="rotate(0)"><animateTransform repeatCount="indefinite" type="rotate" attributeName="transform" dur="10s" begin="0s" calcMode="spline" values="0; 7; 0" keyTimes="0; 0.5; 1" keySplines="0.333 0 0.667 1; 0.333 0 0.667 1" fill="remove" /><g transform="scale(1,1) translate(-32.183,-202.828)"><g id="Group 17" transform="matrix(1,0,0,1,56.855,70.47)"><path stroke-linejoin="round" stroke-linecap="round" stroke-width="1.159" stroke-opacity="1" stroke="#01598b" d="M26.894,-47.148C26.894,-47.148,7.028,-38.755,-5.331,-13.43C-17.689,11.895,-26.893,47.148,-26.893,47.148" /></g><g id="Group 16" transform="matrix(1,0,0,1,30.548,128.614)"><path stroke-linejoin="round" stroke-linecap="round" stroke-width="1.159" stroke-opacity="1" stroke="#01598b" d="M-7.423,-72.145C-7.423,-72.145,0.974,2.13,4.199,19.715C7.423,37.3,5.935,72.145,5.935,72.145" /></g><g id="Group 15" transform="matrix(1,0,0,1,18.523,75.484)"><path stroke-linejoin="round" stroke-linecap="round" stroke-width="1.159" stroke-opacity="1" stroke="#01598b" d="M-7.871,-9.157L7.871,9.157" /></g><g id="Group 14" transform="matrix(1,0,0,1,58.957,29.253)"><path stroke-linejoin="round" stroke-linecap="round" stroke-width="1.159" stroke-opacity="1" stroke="#01598b" d="M-1.93,-20.268C-1.93,-20.268,3.257,-2.833,-3.257,20.268" /></g><g id="Group 13" transform="matrix(1,0,0,1,50.81,80.799)"><path stroke-linejoin="round" stroke-linecap="round" stroke-width="1.159" stroke-opacity="1" stroke="#01598b" d="M12.458,-9.224C12.458,-9.224,-5.728,4.474,-12.458,9.224" /></g><g id="Group 12" transform="matrix(1,0,0,1,83.749,23.322)"><path fill="#99f7ef" fill-opacity="1" d="M9.906,1.707C10.368,-0.972,9.161,-3.543,7.046,-4.974C6.406,-7.446,4.387,-9.444,1.707,-9.906C-0.972,-10.368,-3.544,-9.161,-4.975,-7.046C-7.447,-6.405,-9.444,-4.387,-9.906,-1.707C-10.368,0.972,-9.161,3.543,-7.047,4.974C-6.406,7.446,-4.387,9.444,-1.708,9.906C0.972,10.368,3.544,9.161,4.974,7.046C7.446,6.406,9.444,4.387,9.906,1.707Z" /></g><g id="Group 11" transform="matrix(1,0,0,1,83.749,23.322)"><path fill="#e6fdfb" fill-opacity="1" d="M-2.336,-0.403C-2.559,0.887,-1.693,2.113,-0.403,2.335C0.888,2.558,2.114,1.692,2.336,0.402C2.559,-0.888,1.693,-2.115,0.403,-2.337C-0.888,-2.559,-2.114,-1.694,-2.336,-0.403Z" /></g><g id="Group 10" transform="matrix(1,0,0,1,56.745,10.618)"><path fill="#99f7ef" fill-opacity="1" d="M9.906,1.708C10.368,-0.972,9.161,-3.544,7.047,-4.975C6.406,-7.446,4.387,-9.445,1.708,-9.907C-0.972,-10.368,-3.544,-9.161,-4.974,-7.047C-7.447,-6.406,-9.444,-4.388,-9.906,-1.708C-10.368,0.972,-9.161,3.544,-7.047,4.975C-6.406,7.446,-4.387,9.444,-1.707,9.906C0.972,10.368,3.544,9.161,4.975,7.047C7.446,6.406,9.444,4.388,9.906,1.708Z" /></g><g id="Group 9" transform="matrix(1,0,0,1,56.746,10.617)"><path fill="#e6fdfb" fill-opacity="1" d="M-2.337,-0.403C-2.559,0.887,-1.692,2.114,-0.402,2.335C0.888,2.558,2.113,1.694,2.335,0.404C2.558,-0.887,1.692,-2.114,0.402,-2.337C-0.888,-2.559,-2.114,-1.693,-2.337,-0.403Z" /></g><g id="Group 8" transform="matrix(1,0,0,1,63.268,71.575)"><path fill="#99f7ef" fill-opacity="1" d="M9.906,1.707C10.368,-0.973,9.161,-3.544,7.047,-4.975C6.406,-7.446,4.387,-9.444,1.708,-9.906C-0.972,-10.368,-3.545,-9.161,-4.975,-7.047C-7.447,-6.406,-9.444,-4.388,-9.906,-1.708C-10.367,0.972,-9.161,3.543,-7.046,4.974C-6.406,7.445,-4.388,9.444,-1.708,9.905C0.971,10.368,3.544,9.161,4.975,7.046C7.446,6.405,9.445,4.387,9.906,1.707Z" /></g><g id="Group 7" transform="matrix(1,0,0,1,63.268,71.575)"><path fill="#e6fdfb" fill-opacity="1" d="M-2.336,-0.403C-2.559,0.887,-1.693,2.114,-0.403,2.336C0.888,2.558,2.113,1.693,2.336,0.403C2.559,-0.887,1.693,-2.114,0.403,-2.336C-0.888,-2.558,-2.114,-1.693,-2.336,-0.403Z" /></g><g id="Group 6" transform="matrix(1,0,0,1,69.889,23.539)"><path fill="#99f7ef" fill-opacity="1" d="M9.906,1.708C10.368,-0.972,9.161,-3.543,7.047,-4.974C6.406,-7.445,4.387,-9.444,1.708,-9.906C-0.972,-10.368,-3.545,-9.161,-4.975,-7.046C-7.447,-6.405,-9.444,-4.387,-9.906,-1.707C-10.367,0.973,-9.161,3.544,-7.046,4.975C-6.406,7.446,-4.388,9.444,-1.708,9.906C0.971,10.368,3.544,9.161,4.975,7.047C7.446,6.406,9.445,4.388,9.906,1.708Z" /></g><g id="Group 5" transform="matrix(1,0,0,1,69.889,23.539)"><path fill="#e6fdfb" fill-opacity="1" d="M-2.337,-0.403C-2.559,0.887,-1.692,2.114,-0.402,2.335C0.888,2.558,2.113,1.694,2.335,0.404C2.558,-0.887,1.692,-2.114,0.402,-2.337C-0.888,-2.559,-2.114,-1.693,-2.337,-0.403Z" /></g><g id="Group 4" transform="matrix(1,0,0,1,14.238,69.055)"><path fill="#99f7ef" fill-opacity="1" d="M-3.627,-10.049C-6.345,-10.115,-8.713,-8.547,-9.82,-6.247C-12.172,-5.253,-13.855,-2.963,-13.921,-0.245C-13.988,2.473,-12.419,4.842,-10.118,5.949C-9.124,8.301,-6.835,9.983,-4.118,10.05C-1.399,10.116,0.969,8.548,2.076,6.247C4.428,5.253,6.111,2.964,6.177,0.246C6.243,-2.473,4.674,-4.842,2.373,-5.949C1.38,-8.301,-0.909,-9.983,-3.627,-10.049Z" /></g><g id="Group 3" transform="matrix(1,0,0,1,10.381,69.055)"><path fill="#e6fdfb" fill-opacity="1" d="M-0.074,2.369C1.235,2.401,2.322,1.366,2.354,0.057C2.386,-1.251,1.35,-2.338,0.042,-2.37C-1.267,-2.402,-2.354,-1.367,-2.386,-0.058C-2.418,1.251,-1.383,2.338,-0.074,2.369Z" /></g><g id="Group 2" transform="matrix(1,0,0,1,21.229,56.894)"><path fill="#99f7ef" fill-opacity="1" d="M7.867,-6.258C6.174,-8.386,3.452,-9.195,0.977,-8.57C-1.294,-9.736,-4.13,-9.56,-6.258,-7.867C-8.385,-6.175,-9.196,-3.452,-8.57,-0.977C-9.737,1.295,-9.559,4.13,-7.867,6.258C-6.174,8.386,-3.452,9.196,-0.977,8.57C1.294,9.737,4.13,9.56,6.258,7.867C8.386,6.175,9.197,3.451,8.57,0.975C9.737,-1.295,9.56,-4.13,7.867,-6.258Z" /></g><g id="Group 1" transform="matrix(1,0,0,1,21.229,56.894)"><path fill="#e6fdfb" fill-opacity="1" d="M-1.855,1.476C-1.04,2.5,0.451,2.67,1.476,1.856C2.5,1.04,2.67,-0.451,1.855,-1.475C1.041,-2.501,-0.451,-2.67,-1.476,-1.855C-2.5,-1.04,-2.67,0.452,-1.855,1.476Z" /></g></g></g></g></g><g id="Layer 5 Outlines"><g transform="translate(538.938,477.979)"><g transform="rotate(0)"><animateTransform repeatCount="indefinite" type="rotate" attributeName="transform" dur="10s" begin="0s" calcMode="spline" values="0; 7; 0" keyTimes="0; 0.5; 1" keySplines="0.333 0 0.667 1; 0.333 0 0.667 1" fill="remove" /><g transform="scale(1,1) translate(-77.349,-277.098)"><g id="Group 38" transform="matrix(1,0,0,1,45.748,160.133)"><path stroke-linejoin="round" stroke-linecap="round" stroke-width="1.092" stroke-opacity="1" stroke="#01598b" d="M-32.783,-57.206C-32.783,-57.206,-12.323,-53.332,-3.065,-39.021C6.192,-24.712,32.783,57.206,32.783,57.206" /></g><g id="Group 37" transform="matrix(1,0,0,1,56.305,39.521)"><path stroke-linejoin="round" stroke-linecap="round" stroke-width="1.092" stroke-opacity="1" stroke="#01598b" d="M-4.172,-26.118C-4.172,-26.118,-6.994,-23.097,-5.321,-11.598C-3.65,-0.099,6.994,26.118,6.994,26.118" /></g><g id="Group 36" transform="matrix(1,0,0,1,64.201,102.68)"><path stroke-linejoin="round" stroke-linecap="round" stroke-width="1.092" stroke-opacity="1" stroke="#01598b" d="M1.801,-65.689C1.801,-65.689,-3.438,-52.37,-0.001,-28.732C3.438,-5.095,-2.319,65.689,-2.319,65.689" /></g><g id="Group 35" transform="matrix(1,0,0,1,44.135,108.669)"><path stroke-linejoin="round" stroke-linecap="round" stroke-width="1.092" stroke-opacity="1" stroke="#01598b" d="M1.452,-12.443L-1.452,12.443" /></g><g id="Group 34" transform="matrix(1,0,0,1,76.746,82.52)"><path stroke-linejoin="round" stroke-linecap="round" stroke-width="1.092" stroke-opacity="1" stroke="#01598b" d="M11.453,-14.019L-11.453,14.019" /></g><g id="Group 33" transform="matrix(1,0,0,1,53.397,64.942)"><path stroke-linejoin="round" stroke-linecap="round" stroke-width="1.092" stroke-opacity="1" stroke="#01598b" d="M11.538,16.775L-6.494,0.431L-11.538,-16.775" /></g><g id="Group 32" transform="matrix(1,0,0,1,39.381,65)"><path stroke-linejoin="round" stroke-linecap="round" stroke-width="1.092" stroke-opacity="1" stroke="#01598b" d="M-7.522,-0.374L7.522,0.374" /></g><g id="Group 31" transform="matrix(1,0,0,1,40.556,20.142)"><path stroke-linejoin="round" stroke-linecap="round" stroke-width="1.092" stroke-opacity="1" stroke="#01598b" d="M10.428,7.779L-10.428,-7.779" /></g><g id="Group 30" transform="matrix(1,0,0,1,9.993,99.997)"><path fill="#99f7ef" fill-opacity="1" d="M9.376,-1.363C9.007,-3.899,7.174,-5.85,4.861,-6.515C3.565,-8.543,1.173,-9.744,-1.363,-9.375C-3.899,-9.007,-5.852,-7.174,-6.517,-4.861C-8.544,-3.565,-9.743,-1.173,-9.375,1.364C-9.006,3.9,-7.175,5.851,-4.862,6.516C-3.566,8.543,-1.173,9.744,1.363,9.375C3.899,9.006,5.852,7.174,6.517,4.861C8.544,3.565,9.744,1.172,9.376,-1.363Z" /></g><g id="Group 29" transform="matrix(1,0,0,1,9.994,99.997)"><path fill="#e6fdfb" fill-opacity="1" d="M-2.211,0.322C-2.033,1.543,-0.899,2.389,0.322,2.212C1.543,2.034,2.389,0.899,2.211,-0.322C2.033,-1.543,0.898,-2.388,-0.322,-2.21C-1.543,-2.032,-2.388,-0.899,-2.211,0.322Z" /></g><g id="Group 28" transform="matrix(1,0,0,1,67.476,37.554)"><path fill="#99f7ef" fill-opacity="1" d="M9.375,-1.363C9.007,-3.899,7.174,-5.85,4.861,-6.514C3.565,-8.543,1.173,-9.744,-1.363,-9.375C-3.899,-9.006,-5.852,-7.174,-6.516,-4.86C-8.543,-3.564,-9.744,-1.172,-9.375,1.364C-9.006,3.9,-7.174,5.851,-4.861,6.516C-3.565,8.544,-1.173,9.744,1.363,9.375C3.899,9.007,5.852,7.174,6.516,4.861C8.543,3.566,9.744,1.173,9.375,-1.363Z" /></g><g id="Group 27" transform="matrix(1,0,0,1,67.476,37.554)"><path fill="#e6fdfb" fill-opacity="1" d="M-2.211,0.322C-2.033,1.544,-0.899,2.389,0.321,2.212C1.543,2.034,2.389,0.899,2.211,-0.322C2.033,-1.542,0.899,-2.389,-0.321,-2.211C-1.543,-2.033,-2.389,-0.899,-2.211,0.322Z" /></g><g id="Group 26" transform="matrix(1,0,0,1,45.587,96.225)"><path fill="#99f7ef" fill-opacity="1" d="M9.375,-1.363C9.006,-3.899,7.174,-5.85,4.861,-6.515C3.565,-8.543,1.172,-9.744,-1.363,-9.375C-3.899,-9.007,-5.852,-7.174,-6.516,-4.86C-8.544,-3.565,-9.744,-1.173,-9.375,1.364C-9.007,3.9,-7.174,5.851,-4.861,6.516C-3.565,8.543,-1.173,9.744,1.363,9.375C3.899,9.007,5.852,7.174,6.516,4.861C8.543,3.565,9.744,1.173,9.375,-1.363Z" /></g><g id="Group 25" transform="matrix(1,0,0,1,45.586,96.225)"><path fill="#e6fdfb" fill-opacity="1" d="M-2.21,0.322C-2.032,1.544,-0.899,2.389,0.321,2.212C1.542,2.034,2.389,0.899,2.212,-0.322C2.034,-1.542,0.899,-2.388,-0.321,-2.21C-1.543,-2.032,-2.388,-0.899,-2.21,0.322Z" /></g><g id="Group 24" transform="matrix(1,0,0,1,87.309,68.63)"><path fill="#99f7ef" fill-opacity="1" d="M9.375,-1.363C9.006,-3.899,7.174,-5.85,4.861,-6.515C3.565,-8.543,1.173,-9.744,-1.363,-9.375C-3.899,-9.007,-5.852,-7.174,-6.516,-4.86C-8.543,-3.564,-9.744,-1.173,-9.375,1.364C-9.006,3.9,-7.174,5.851,-4.861,6.516C-3.565,8.543,-1.173,9.744,1.363,9.375C3.899,9.006,5.852,7.174,6.516,4.861C8.544,3.566,9.744,1.173,9.375,-1.363Z" /></g><g id="Group 23" transform="matrix(1,0,0,1,87.309,68.63)"><path fill="#e6fdfb" fill-opacity="1" d="M-2.211,0.322C-2.033,1.544,-0.899,2.389,0.321,2.212C1.543,2.034,2.389,0.899,2.211,-0.322C2.033,-1.542,0.899,-2.389,-0.321,-2.211C-1.542,-2.033,-2.389,-0.899,-2.211,0.322Z" /></g><g id="Group 22" transform="matrix(1,0,0,1,32.987,61.717)"><path fill="#99f7ef" fill-opacity="1" d="M9.375,-1.363C9.007,-3.899,7.174,-5.85,4.861,-6.515C3.565,-8.543,1.173,-9.744,-1.363,-9.375C-3.899,-9.007,-5.852,-7.174,-6.517,-4.86C-8.544,-3.565,-9.743,-1.173,-9.375,1.364C-9.006,3.9,-7.175,5.851,-4.862,6.516C-3.566,8.543,-1.173,9.744,1.363,9.375C3.899,9.006,5.852,7.174,6.516,4.861C8.543,3.565,9.744,1.173,9.375,-1.363Z" /></g><g id="Group 21" transform="matrix(1,0,0,1,32.987,61.717)"><path fill="#e6fdfb" fill-opacity="1" d="M-2.211,0.322C-2.033,1.544,-0.9,2.389,0.32,2.212C1.542,2.034,2.389,0.899,2.211,-0.322C2.033,-1.543,0.898,-2.389,-0.322,-2.211C-1.543,-2.033,-2.388,-0.899,-2.211,0.322Z" /></g><g id="Group 20" transform="matrix(1,0,0,1,23.012,108.164)"><path fill="#99f7ef" fill-opacity="1" d="M7.059,6.318C8.768,4.409,9.09,1.751,8.117,-0.45C8.841,-2.745,8.228,-5.35,6.318,-7.059C4.409,-8.769,1.75,-9.09,-0.45,-8.117C-2.745,-8.841,-5.35,-8.227,-7.059,-6.318C-8.768,-4.408,-9.09,-1.751,-8.117,0.45C-8.841,2.745,-8.228,5.351,-6.318,7.06C-4.409,8.769,-1.751,9.09,0.451,8.117C2.745,8.841,5.35,8.228,7.059,6.318Z" /></g><g id="Group 19" transform="matrix(1,0,0,1,23.012,108.164)"><path fill="#e6fdfb" fill-opacity="1" d="M-1.664,-1.49C-2.487,-0.571,-2.409,0.842,-1.489,1.664C-0.57,2.488,0.843,2.409,1.665,1.489C2.488,0.571,2.41,-0.843,1.49,-1.665C0.571,-2.488,-0.842,-2.409,-1.664,-1.49Z" /></g><g id="Group 18" transform="matrix(1,0,0,1,27.721,9.994)"><path fill="#99f7ef" fill-opacity="1" d="M9.375,-1.364C9.006,-3.9,7.174,-5.85,4.861,-6.514C3.565,-8.543,1.173,-9.744,-1.363,-9.376C-3.899,-9.007,-5.852,-7.175,-6.516,-4.861C-8.543,-3.565,-9.744,-1.173,-9.375,1.363C-9.006,3.899,-7.174,5.851,-4.861,6.516C-3.565,8.543,-1.172,9.744,1.363,9.376C3.899,9.007,5.852,7.173,6.516,4.861C8.543,3.565,9.744,1.172,9.375,-1.364Z" /></g><g id="Group 17" transform="matrix(1,0,0,1,27.722,9.993)"><path fill="#e6fdfb" fill-opacity="1" d="M-2.211,0.322C-2.033,1.544,-0.899,2.389,0.321,2.212C1.543,2.034,2.389,0.899,2.211,-0.322C2.033,-1.542,0.899,-2.389,-0.321,-2.211C-1.542,-2.033,-2.389,-0.899,-2.211,0.322Z" /></g><g id="Group 16" transform="matrix(1,0,0,1,51.716,10.533)"><path fill="#99f7ef" fill-opacity="1" d="M1.363,9.375C3.899,9.007,5.85,7.174,6.515,4.861C8.543,3.565,9.744,1.173,9.375,-1.363C9.007,-3.899,7.174,-5.852,4.86,-6.516C3.565,-8.543,1.173,-9.744,-1.364,-9.375C-3.9,-9.006,-5.851,-7.174,-6.516,-4.861C-8.543,-3.565,-9.744,-1.172,-9.375,1.364C-9.007,3.899,-7.174,5.852,-4.861,6.516C-3.565,8.543,-1.172,9.744,1.363,9.375Z" /></g><g id="Group 15" transform="matrix(1,0,0,1,51.716,10.533)"><path fill="#e6fdfb" fill-opacity="1" d="M-0.321,-2.211C-1.542,-2.033,-2.388,-0.899,-2.211,0.321C-2.033,1.543,-0.9,2.389,0.321,2.211C1.542,2.033,2.389,0.899,2.211,-0.321C2.033,-1.543,0.9,-2.389,-0.321,-2.211Z" /></g><g id="Group 14" transform="matrix(1,0,0,1,42.241,50.797)"><path fill="#99f7ef" fill-opacity="1" d="M1.363,9.375C3.899,9.006,5.851,7.173,6.515,4.86C8.544,3.565,9.744,1.172,9.375,-1.364C9.007,-3.9,7.174,-5.852,4.861,-6.517C3.565,-8.544,1.173,-9.744,-1.364,-9.376C-3.9,-9.007,-5.851,-7.175,-6.515,-4.862C-8.543,-3.566,-9.744,-1.173,-9.375,1.363C-9.006,3.899,-7.174,5.851,-4.861,6.516C-3.565,8.543,-1.172,9.743,1.363,9.375Z" /></g><g id="Group 13" transform="matrix(1,0,0,1,42.242,50.798)"><path fill="#e6fdfb" fill-opacity="1" d="M-0.322,-2.212C-1.543,-2.034,-2.388,-0.899,-2.212,0.322C-2.034,1.543,-0.9,2.389,0.322,2.211C1.542,2.033,2.388,0.898,2.21,-0.322C2.032,-1.543,0.899,-2.389,-0.322,-2.212Z" /></g><g id="Group 12" transform="matrix(1,0,0,1,40.74,18.16)"><path fill="#99f7ef" fill-opacity="1" d="M7.06,6.317C8.769,4.408,9.089,1.751,8.117,-0.45C8.841,-2.745,8.227,-5.351,6.318,-7.06C4.408,-8.769,1.75,-9.091,-0.451,-8.117C-2.746,-8.841,-5.351,-8.228,-7.06,-6.318C-8.769,-4.409,-9.09,-1.751,-8.117,0.449C-8.841,2.744,-8.228,5.35,-6.318,7.059C-4.409,8.768,-1.75,9.091,0.451,8.117C2.746,8.841,5.351,8.227,7.06,6.317Z" /></g><g id="Group 11" transform="matrix(1,0,0,1,40.74,18.161)"><path fill="#e6fdfb" fill-opacity="1" d="M-1.664,-1.491C-2.487,-0.571,-2.409,0.842,-1.49,1.665C-0.57,2.488,0.842,2.409,1.665,1.49C2.488,0.571,2.409,-0.842,1.49,-1.665C0.57,-2.487,-0.842,-2.41,-1.664,-1.491Z" /></g><g id="Group 10" transform="matrix(1,0,0,1,128.3,115.524)"><path fill="#e6fdfb" fill-opacity="1" d="M-17.971,20.509C-17.971,20.509,-25.049,8.467,-22.862,-3.528C-20.673,-15.523,-6.245,-24.022,6.385,-27.963C19.017,-31.903,25.049,-20.531,22.16,-1.313C19.27,17.905,10.856,28.74,-17.971,20.509Z" /></g><g id="Group 9" transform="matrix(1,0,0,1,82.872,138.774)"><path fill="#e6fdfb" fill-opacity="1" d="M4.357,31.245C4.357,31.245,16.426,24.912,20.794,13.846C25.162,2.779,17.585,-11.699,9.148,-21.473C0.711,-31.245,-10.146,-24.93,-17.654,-7.516C-25.162,9.897,-23.772,23.213,4.357,31.245Z" /></g><g id="Group 8" transform="matrix(1,0,0,1,66.057,189.848)"><path fill="#ccfbf7" fill-opacity="1" d="M12.227,36.398C12.227,36.398,21.368,26.288,21.645,14.394C21.922,2.5,9.814,-8.471,-1.479,-14.73C-12.771,-20.99,-20.78,-11.313,-21.813,7.623C-22.846,26.557,-16.945,38.573,12.227,36.398Z" /></g><g id="Group 7" transform="matrix(1,0,0,1,137.959,155.876)"><path fill="#ccfbf7" fill-opacity="1" d="M-26.199,6.272C-26.199,6.272,-26.74,-7.347,-19.333,-16.658C-11.926,-25.967,4.401,-26.631,17.081,-24.203C29.762,-21.773,29.711,-9.212,18.373,5.988C7.035,21.188,-5.194,26.631,-26.199,6.272Z" /></g><g id="Group 6" transform="matrix(1,0,0,1,133.022,194.607)"><path fill="#e6fdfb" fill-opacity="1" d="M-27.71,16.673C-27.71,16.673,-28.251,3.054,-20.844,-6.256C-13.437,-15.566,2.89,-16.231,15.57,-13.802C28.251,-11.373,28.2,1.189,16.862,16.389C5.524,31.588,-6.705,37.033,-27.71,16.673Z" /></g><g id="Group 5" transform="matrix(1,0,0,1,129.207,155.466)"><path stroke-linejoin="round" stroke-linecap="round" stroke-width="1.092" stroke-opacity="1" stroke="#01598b" d="M-31.069,17.667C-24.56,10.496,-12.546,2.445,-12.546,2.445C-12.546,2.445,-6.451,-3.029,4.384,-6.964C15.219,-10.897,23.304,-11.312,31.069,-17.666" /></g><g id="Group 4" transform="matrix(1,0,0,1,72.418,211.231)"><path stroke-linejoin="round" stroke-linecap="round" stroke-width="1.092" stroke-opacity="1" stroke="#01598b" d="M-15.425,-35.924C-15.425,-35.924,-8.887,-28.449,-7.313,-13.479C-5.738,1.492,-8.738,2.034,3.068,12.571C3.068,12.571,15.425,21.176,14.969,35.924" /></g><g id="Group 3" transform="matrix(1,0,0,1,121.729,205.79)"><path stroke-linejoin="round" stroke-linecap="round" stroke-width="1.092" stroke-opacity="1" stroke="#01598b" d="M30.889,-18.62C30.889,-18.62,23.697,-9.629,12.092,-8.545C0.489,-7.461,-12.655,2.625,-12.655,2.625C-12.655,2.625,-24.093,9.353,-30.889,18.62" /></g><g id="Group 2" transform="matrix(1,0,0,1,111.717,189.364)"><path stroke-linejoin="round" stroke-linecap="round" stroke-width="1.092" stroke-opacity="1" stroke="#01598b" d="M31.85,-98.286C31.85,-98.286,17.717,-91.026,13.025,-79.257C8.331,-67.487,2.488,-61.061,2.488,-61.061C2.488,-61.061,-9.139,-44.918,-13.3,-18.057C-17.462,8.803,-24.031,63.883,-31.85,98.285" /></g><g id="Group 1" transform="matrix(1,0,0,1,89.437,153.21)"><path stroke-linejoin="round" stroke-linecap="round" stroke-width="1.092" stroke-opacity="1" stroke="#01598b" d="M-6.177,-37.402C-6.177,-37.402,-4.472,-26.877,-4.948,-12.266C-5.131,-6.654,-5.021,-1.514,-4.815,2.686C-4.501,9.101,-2.993,15.359,-0.356,21.215C1.534,25.412,3.927,31.075,6.177,37.402" /></g></g></g></g></g><g id="Layer 4 Outlines"><g transform="translate(-4.976,422.541)"><g transform="rotate(0)"><animateTransform repeatCount="indefinite" type="rotate" attributeName="transform" dur="10s" begin="0s" calcMode="spline" values="0; 7; 0" keyTimes="0; 0.5; 1" keySplines="0.333 0 0.667 1; 0.333 0 0.667 1" fill="remove" /><g transform="scale(1,1) translate(-3.991,-110.542)"><g id="Group 1" transform="matrix(1,0,0,1,38.349,49.985)"><path fill="#034b70" fill-opacity="1" d="M-32.785,64.446C-32.785,64.446,-38.099,38.114,-33.222,17.16C-28.347,-3.795,-16.59,-2.647,-5.575,-19.405C5.441,-36.161,29.382,-49.735,29.382,-49.735C29.382,-49.735,18.377,-21.752,16.518,5.769C14.659,33.292,-1.639,40.078,-13.97,53.463C-26.301,66.848,-32.785,64.446,-32.785,64.446Z" /></g></g></g></g></g><g id="Layer 3 Outlines"><g transform="translate(482.596,443.495)"><g transform="rotate(0)"><animateTransform repeatCount="indefinite" type="rotate" attributeName="transform" dur="10s" begin="0s" calcMode="spline" values="0; 7; 0" keyTimes="0; 0.5; 1" keySplines="0.333 0 0.667 1; 0.333 0 0.667 1" fill="remove" /><g transform="scale(1,1) translate(-66.646,-117.466)"><g id="Group 1" transform="matrix(1,0,0,1,33.324,42.97)"><path fill="#034b70" fill-opacity="1" d="M27.388,73.713C27.388,73.713,2.773,62.955,-11.591,46.938C-25.955,30.92,-18.268,21.95,-25.672,3.314C-33.075,-15.324,-30.453,-42.72,-30.453,-42.72C-30.453,-42.72,-13.851,-17.65,7.622,-0.336C29.096,16.98,25.303,34.222,29.189,52.001C33.075,69.78,27.388,73.713,27.388,73.713Z" /></g></g></g></g></g></svg>